<svg width="579" height="161" viewBox="0 0 579 161" fill="none" xmlns="http://www.w3.org/2000/svg">
<g clip-path="url(#clip0_76_893)">
<path d="M86.3574 156.367H37.9625V94.9784H4.63663L95.0511 4.63312" stroke="white" stroke-width="15" stroke-linecap="round" stroke-linejoin="round"/>
<path d="M64.3333 61.3885C57.9579 73.8399 72.1577 104.245 73.027 104.245C73.3168 103.665 73.9544 101.928 74.1862 99.6115C74.476 96.7158 77.0841 96.4262 79.6922 93.5306C82.3003 90.6349 88.3859 90.9244 92.7327 89.187C97.0796 87.4496 98.2387 87.4496 100.557 87.16C102.875 86.8705 108.961 84.8435 109.541 84.8435C110.12 84.8435 116.206 82.2374 117.365 81.6583C118.292 81.1949 119.683 78.5697 120.263 77.3147L121.132 81.6583C120.842 83.1061 120.263 86.1176 120.263 86.5809C120.263 87.0442 119.297 89.8629 118.814 91.214L110.41 95.268C108.864 95.5575 104.614 96.8316 99.9775 99.6115C94.1817 103.086 100.557 100.48 102.296 101.349C103.687 102.044 110.603 100.866 114.177 99.6115C119.973 93.5306 127.508 85.4226 127.508 85.4226C127.508 85.4226 127.797 72.3921 114.177 68.3381C106.311 65.9967 99.3979 70.9442 99.3979 70.9442C89.2553 50.6744 69.6463 51.157 64.3333 61.3885Z" fill="#EE1C1F" stroke="#EE1C1F" stroke-width="6" stroke-linejoin="round"/>
<path d="M84.3288 93.5306C80.3888 95.1962 73.0276 99.9011 71.5787 112.642C70.3227 119.592 70.4189 134.765 80.8514 139.861C80.8514 139.861 80.3981 137.719 79.4024 133.491C78.2432 128.568 79.4024 123.646 83.1697 120.75C92.1532 113.845 111.859 119.302 122.871 107.14C130.908 98.2633 147.506 68.5715 134.173 79.9208C118.524 93.241 119.973 101.638 104.614 103.086C89.2553 104.534 101.408 94.5527 109.251 93.5306C115.916 92.6618 120.263 89.4766 119.104 82.2374C118.331 82.8165 113.304 86.4431 109.251 87.7392C102.006 90.0557 91.8634 90.3453 84.3288 93.5306Z" stroke="white" stroke-width="5" stroke-linejoin="round"/>
<path d="M211.765 123.427C201.108 123.427 192.583 121.069 186.189 116.353C179.795 111.561 176.066 104.83 175 96.1591H191.898C192.431 100.57 194.563 104.069 198.292 106.655C202.022 109.165 206.78 110.42 212.564 110.42C217.284 110.42 220.899 109.583 223.411 107.91C225.999 106.237 227.293 103.993 227.293 101.179C227.293 98.5167 226.532 96.3872 225.01 94.79C223.487 93.1169 220.861 91.7854 217.131 90.7968L201.832 86.5755C193.992 84.3696 188.245 81.3656 184.591 77.5624C181.013 73.6833 179.225 68.8533 179.225 63.073C179.225 58.1289 180.481 53.8699 182.992 50.2949C185.58 46.644 189.196 43.8678 193.839 41.9663C198.482 39.9888 203.925 39 210.167 39C219.757 39 227.407 41.2818 233.116 45.8454C238.825 50.333 242.06 56.3034 242.821 63.7575H225.923C225.162 59.7261 223.297 56.7598 220.328 54.8585C217.436 52.957 213.706 52.0063 209.139 52.0063C205.181 52.0063 202.022 52.7668 199.662 54.2881C197.303 55.8094 196.123 57.8631 196.123 60.4489C196.123 62.4267 196.77 64.2521 198.064 65.9252C199.358 67.5225 202.06 68.8916 206.17 70.0325L221.47 74.2538C229.538 76.4597 235.324 79.5019 238.825 83.381C242.403 87.1842 244.191 92.0136 244.191 97.8704C244.191 106.085 241.337 112.398 235.628 116.809C229.919 121.221 221.965 123.427 211.765 123.427ZM254.735 122.4V40.255H272.318V122.4H254.735ZM326.656 123.541C317.75 123.541 310.1 121.791 303.706 118.293C297.312 114.794 292.365 109.888 288.863 103.575C285.438 97.2617 283.725 89.8841 283.725 81.4415C283.725 73.0747 285.476 65.7353 288.977 59.4221C292.479 53.0331 297.312 48.0512 303.478 44.4763C309.72 40.9015 316.951 39.1141 325.171 39.1141C331.946 39.1141 337.998 40.331 343.326 42.765C348.73 45.1989 353.069 48.5455 356.342 52.8049C359.691 56.988 361.67 61.8562 362.279 67.4084H344.696C343.935 62.9207 341.804 59.4221 338.302 56.9121C334.876 54.3263 330.576 53.0331 325.4 53.0331C320.604 53.0331 316.418 54.174 312.84 56.4558C309.263 58.6617 306.485 61.8562 304.505 66.0393C302.527 70.2224 301.537 75.2424 301.537 81.0992C301.537 87.1842 302.527 92.3941 304.505 96.7295C306.485 100.989 309.377 104.259 313.183 106.541C317.065 108.747 321.823 109.85 327.455 109.85C332.022 109.85 335.904 109.279 339.101 108.139C342.298 106.998 344.734 105.4 346.408 103.347L363.078 109.964C358.664 114.375 353.526 117.76 347.664 120.118C341.88 122.4 334.876 123.541 326.656 123.541ZM345.495 109.964V87.3741L349.034 90.9109H327.341V77.4483H363.078V109.964H345.495ZM373.506 98.2127V84.5219H415.295V98.2127H373.506ZM466.322 123.541C460.385 123.541 454.905 122.514 449.881 120.46C444.857 118.331 440.48 115.364 436.75 111.561C433.097 107.758 430.242 103.271 428.187 98.0986C426.132 92.8505 425.104 87.146 425.104 80.9851C425.104 74.8242 426.094 69.1956 428.073 64.0998C430.128 59.004 432.982 54.5921 436.636 50.8654C440.366 47.0623 444.743 44.1721 449.767 42.1945C454.79 40.1409 460.309 39.1141 466.322 39.1141C473.097 39.1141 479.186 40.4451 484.591 43.1072C490.071 45.6933 494.524 49.3822 497.949 54.174C501.451 58.8899 503.582 64.4421 504.343 70.8311H487.217C486.227 64.9743 483.83 60.563 480.023 57.5967C476.217 54.5545 471.689 53.0331 466.436 53.0331C461.793 53.0331 457.683 54.1357 454.105 56.3417C450.604 58.5476 447.864 61.7421 445.884 65.9252C443.905 70.0325 442.916 75.0142 442.916 80.871C442.916 86.8037 443.905 91.9377 445.884 96.2731C447.94 100.533 450.756 103.841 454.334 106.199C457.911 108.481 462.022 109.622 466.665 109.622C471.613 109.622 475.989 108.139 479.795 105.172C483.601 102.206 486.075 97.7945 487.217 91.9377H504.572C503.582 98.3268 501.336 103.917 497.835 108.709C494.334 113.425 489.881 117.076 484.476 119.662C479.072 122.247 473.02 123.541 466.322 123.541ZM534.596 122.4V53.7176H507.764V40.255H579.01V53.7176H552.179V122.4H534.596Z" fill="white"/>
</g>
<defs>
<clipPath id="clip0_76_893">
<rect width="579" height="161" fill="white"/>
</clipPath>
</defs>
</svg>
